# xmcd
#
# Track frame offsets: 
#        150
#        22543
#        44969
#        67271
#        87704
#        105683
#        126462
#        145242
#        168013
#        193706
#        211564
#        231065
#
# Disc length: 3327 seconds
#
# Revision: 0
# Processed by: cddbd v1.5.2PL0 Copyright (c) Steve Scherf et al.
# Submitted via: ExactAudioCopyFreeDBPlugin 1.0
#
DISCID=aa0cfd0c
DTITLE=Various Artist - Luxury Soul 2012
DYEAR=2012
DGENRE=Soul
TTITLE0=Eric Benet - Wake Up Everybody
TTITLE1=Frank McComb - Actions Speak Louder Than Words
TTITLE2=Incognito - It's Just One Of Those Things
TTITLE3=Sunburst Band - Rough Times
TTITLE4=Live Tropical Fish feat. Omar - Rubber Soul
TTITLE5=Reel People feat. Darien - Sure
TTITLE6=Real - Satisfaction
TTITLE7=Soul Talk - I Want It
TTITLE8=Cool Million feat. Laura Jackson - Love The Beat (JD73 Remix)
TTITLE9=Dennis Taylor - Enough Is Enough
TTITLE10=Gianna - Things That I Do
TTITLE11=Bob Baldwin feat. Phil Perry - Too Late
EXTD=
EXTT0=
EXTT1=
EXTT2=
EXTT3=
EXTT4=
EXTT5=
EXTT6=
EXTT7=
EXTT8=
EXTT9=
EXTT10=
EXTT11=
PLAYORDER=
